<?xml version="1.0" encoding="UTF-8"?><svg id="Layer_1" xmlns="http://www.w3.org/2000/svg" viewBox="0 0 331.49 125.67"><g><path d="M66.09,56.13c-11.23,0-20.36,9.13-20.36,20.36s9.13,20.36,20.36,20.36,20.36-9.13,20.36-20.36-9.13-20.36-20.36-20.36Zm0,30.37c-5.52,0-10.01-4.49-10.01-10.01s4.49-10.01,10.01-10.01,10.01,4.49,10.01,10.01-4.49,10.01-10.01,10.01Z" style="fill:#fff; stroke:#000; stroke-miterlimit:10; stroke-width:2px;"/><path d="M39.5,55.82h-5.91c-1.22,0-2.22,.99-2.22,2.22v.74c-2.96-1.68-6.37-2.64-10.01-2.64-11.23,0-20.36,9.13-20.36,20.36s9.13,20.36,20.36,20.36c3.64,0,7.05-.96,10.01-2.64v10.24c0,5.39-4.34,9.79-9.71,9.88-5.53,.09-10.06-4.55-10.06-10.08v-2.32c0-1.22-.99-2.22-2.22-2.22H3.47c-1.22,0-2.22,.99-2.22,2.22v2.21c0,11.1,8.82,20.37,19.92,20.53,11.3,.17,20.54-8.97,20.54-20.23V58.04c0-1.22-.99-2.22-2.22-2.22Zm-18.14,30.68c-5.52,0-10.01-4.49-10.01-10.01s4.49-10.01,10.01-10.01,10.01,4.49,10.01,10.01-4.49,10.01-10.01,10.01Z" style="fill:#fff; stroke:#000; stroke-miterlimit:10; stroke-width:2px;"/><path d="M156.51,56.13c-11.23,0-20.36,9.13-20.36,20.36s9.13,20.36,20.36,20.36,20.36-9.13,20.36-20.36-9.13-20.36-20.36-20.36Zm0,30.37c-5.52,0-10.01-4.49-10.01-10.01s4.49-10.01,10.01-10.01,10.01,4.49,10.01,10.01-4.49,10.01-10.01,10.01Z" style="fill:#fff; stroke:#000; stroke-miterlimit:10; stroke-width:2px;"/><path d="M128.97,55.82h-5.91c-1.22,0-2.22,.99-2.22,2.22v.74c-2.96-1.68-6.37-2.64-10.01-2.64-11.22,0-20.36,9.13-20.36,20.36s9.13,20.36,20.36,20.36c3.64,0,7.05-.96,10.01-2.64v10.24c0,5.53-4.56,10.01-10.11,9.88-5.32-.12-9.66-4.76-9.66-10.08v-2.32c0-1.22-.99-2.22-2.22-2.22h-5.91c-1.22,0-2.22,.99-2.22,2.22v2.21c0,10.85,8.43,20.01,19.27,20.51,11.59,.54,21.19-8.73,21.19-20.21V58.04c0-1.22-.99-2.22-2.22-2.22Zm-18.14,30.68c-5.52,0-10.01-4.49-10.01-10.01s4.49-10.01,10.01-10.01,10.01,4.49,10.01,10.01-4.49,10.01-10.01,10.01Z" style="fill:#fff; stroke:#000; stroke-miterlimit:10; stroke-width:2px;"/><path d="M203.57,55.9c-3.63,0-7.03,.98-9.98,2.68-.03-1.22-1.02-2.2-2.25-2.2h-5.71c-1.24,0-2.25,1.01-2.25,2.25v62.77c0,1.24,1.01,2.25,2.25,2.25h5.71c1.24,0,2.25-1.01,2.25-2.25v-27.96c2.94,1.69,6.34,2.67,9.97,2.67,11.08,0,20.1-9.02,20.1-20.1s-9.02-20.1-20.1-20.1Zm0,29.98c-5.45,0-9.89-4.43-9.89-9.89s4.43-9.89,9.89-9.89,9.89,4.43,9.89,9.89-4.43,9.89-9.89,9.89Z" style="fill:#fff; stroke:#000; stroke-miterlimit:10; stroke-width:2px;"/><path d="M248.98,55.9c-11.08,0-20.1,9.02-20.1,20.1s9.02,20.1,20.1,20.1,20.1-9.02,20.1-20.1-9.02-20.1-20.1-20.1Zm0,29.98c-5.45,0-9.89-4.43-9.89-9.89s4.43-9.89,9.89-9.89,9.89,4.43,9.89,9.89-4.43,9.89-9.89,9.89Z" style="fill:#fff; stroke:#000; stroke-miterlimit:10; stroke-width:2px;"/><path d="M294.39,55.9c-11.08,0-20.1,9.02-20.1,20.1s9.02,20.1,20.1,20.1,20.1-9.02,20.1-20.1-9.02-20.1-20.1-20.1Zm0,29.98c-5.45,0-9.89-4.43-9.89-9.89s4.43-9.89,9.89-9.89,9.89,4.43,9.89,9.89-4.43,9.89-9.89,9.89Z" style="fill:#fff; stroke:#000; stroke-miterlimit:10; stroke-width:2px;"/><rect x="320.28" y="34.76" width="10.21" height="61.43" rx="2.25" ry="2.25" style="fill:#fff; stroke:#000; stroke-miterlimit:10; stroke-width:2px;"/></g><g><path d="M185.93,51.07c-1.32,.43-2.7,.76-4.14,.98l-12.01,1.85-17.68,2.72c-2.43,.37-4.52-1.72-4.15-4.15l2.72-17.67,1.85-12.01c.22-1.44,.55-2.82,.98-4.14,1.28-3.96,3.42-7.35,6.14-10.07,.12-.12,.23-.23,.36-.34,3.44-3.31,7.76-5.58,12.36-6.61,8.03-1.79,16.93,.18,23.67,6.91,6.73,6.73,8.71,15.64,6.92,23.67-1.03,4.6-3.3,8.92-6.61,12.36-2.77,2.89-6.28,5.16-10.41,6.49Z" style="fill:#e38bb4; stroke:#000; stroke-miterlimit:10; stroke-width:2px;"/><path d="M196.34,44.57L160,8.24c3.44-3.31,7.76-5.58,12.36-6.61l30.59,30.59c-1.03,4.6-3.3,8.92-6.61,12.36Z" style="fill:#fbe64d; stroke:#000; stroke-miterlimit:10; stroke-width:2px;"/><path d="M185.93,51.07c-1.32,.43-2.7,.76-4.14,.98l-12.01,1.85-19.1-19.1,1.85-12.01c.22-1.44,.55-2.82,.98-4.14l32.42,32.42Z" style="fill:#fbe64d; stroke:#000; stroke-miterlimit:10; stroke-width:2px;"/><g><path d="M163.58,50.77l-4.89-4.89c-.39-.39-1.02-.39-1.41,0s-.39,1.02,0,1.41l3.51,3.51h0c-.88,.15-1.79-.14-2.42-.78l-3.04-3.04c-.39-.39-1.02-.39-1.41,0s-.39,1.02,0,1.41l1.74,1.74c.54,.54,.24,1.48-.51,1.6h0c-.3,.05-.61-.05-.82-.26l-.61-.61c-.39-.39-1.02-.39-1.41,0s-.39,1.02,0,1.41l1.32,1.32c.23,.23,.55,.33,.87,.28l8.56-1.41c.37-.06,.67-.32,.79-.68s.02-.75-.24-1.01Z"/><path d="M179.7,47.92l-9.73-9.73c-.39-.39-1.02-.39-1.41,0s-.39,1.02,0,1.41l8.36,8.36-1.37,.23c-.3,.05-.61-.05-.82-.26l-3.04-3.04c-.39-.39-1.02-.39-1.41,0s-.39,1.02,0,1.41l2.37,2.37-1.37,.23c-.3,.05-.61-.05-.82-.26l-3.85-3.85c-.39-.39-1.02-.39-1.41,0s-.39,1.02,0,1.41l4.22,4.22c.44,.44,1.07,.65,1.69,.54l8.08-1.33c.37-.06,.67-.32,.79-.68s.02-.75-.25-1.01Z"/><path d="M187.89,23.07l8.7,8.7c.44,.44,.6,1.09,.43,1.69-.07,.23-.14,.46-.21,.69l-5.79-5.79c-.39-.39-1.02-.39-1.41,0s-.39,1.02,0,1.41l5.88,5.88c.3,.3,.37,.75,.16,1.12-.14,.25-.3,.5-.46,.75l-9.27-9.27c-.39-.39-1.02-.39-1.41,0s-.39,1.02,0,1.41l10.1,10.1c.2,.2,.49,.31,.78,.29,.29-.02,.55-.16,.73-.4l.22-.29c1.56-2.09,2.6-4.55,3-7.13,.05-.31-.06-.62-.28-.84l-9.73-9.73c-.39-.39-1.02-.39-1.41,0s-.39,1.02,0,1.41Z"/><path d="M192,44.26c.04-.31-.07-.61-.29-.83l-11.8-11.8c-.39-.39-1.02-.39-1.41,0s-.39,1.02,0,1.41l10.9,10.9-.57,.35-2.88-2.88c-.39-.39-1.02-.39-1.41,0s-.39,1.02,0,1.41l2.53,2.53-.57,.35-7.39-7.39c-.39-.39-1.02-.39-1.41,0s-.39,1.02,0,1.41l7.95,7.95c.32,.32,.83,.39,1.22,.15l4.68-2.82c.26-.16,.44-.43,.48-.74Z"/><path d="M194.54,17.76c-.39-.39-1.02-.39-1.41,0s-.39,1.02,0,1.41l6.8,6.8c.25,.25,.62,.35,.96,.26,.34-.09,.61-.35,.71-.7,.04-.14,.44-1.61,.66-3.6,.33-.34,.35-.85,.1-1.23,.16-2.77-.15-6.15-2.09-8.53-.35-.44-.98-.49-1.41-.15-.43,.35-.49,.98-.15,1.41,.53,.65,.9,1.41,1.16,2.22,.3,.93-.89,1.62-1.58,.93l-.95-.95c-.39-.39-1.02-.39-1.41,0s-.39,1.02,0,1.41l4.04,4.04c.2,.2,.31,.49,.27,.78-.06,.51-.13,.98-.2,1.39l-5.5-5.5Z"/></g><path d="M128.83,62.86h8.77c1.25,0,2.26,1.01,2.26,2.26v7.72c0,3.67-2.98,6.65-6.65,6.65h0c-3.67,0-6.65-2.98-6.65-6.65v-7.72c0-1.25,1.01-2.26,2.26-2.26Z" transform="translate(89.35 -73.35) rotate(45)" style="fill:#e38bb4; stroke:#000; stroke-miterlimit:10; stroke-width:2px;"/><line x1="139.09" y1="65.3" x2="148.57" y2="55.82" style="fill:#e38bb4; stroke:#000; stroke-miterlimit:10; stroke-width:2px;"/><line x1="139.74" y1="74.05" x2="136.21" y2="70.52" style="fill:none; stroke:#000; stroke-linecap:round; stroke-miterlimit:10; stroke-width:2px;"/><line x1="135.76" y1="76.75" x2="130.78" y2="71.76" style="fill:none; stroke:#000; stroke-linecap:round; stroke-miterlimit:10; stroke-width:2px;"/></g></svg>