<?xml version="1.0" encoding="UTF-8" standalone="no" ?>
<!DOCTYPE svg PUBLIC "-//W3C//DTD SVG 1.1//EN" "http://www.w3.org/Graphics/SVG/1.1/DTD/svg11.dtd">
<svg xmlns="http://www.w3.org/2000/svg" xmlns:xlink="http://www.w3.org/1999/xlink" version="1.1" width="640" height="480" viewBox="0 0 640 480" xml:space="preserve">
<desc>Created with Fabric.js 3.6.3</desc>
<defs>
</defs>
<g transform="matrix(5.79 0 0 5.79 378.94 168.95)" id="Layer_1"  >
<path style="stroke: rgb(0,0,0); stroke-width: 2; stroke-dasharray: none; stroke-linecap: butt; stroke-dashoffset: 0; stroke-linejoin: miter; stroke-miterlimit: 10; fill: rgb(227,139,180); fill-rule: nonzero; opacity: 1;"  transform=" translate(-175.74, -28.83)" d="M 185.93 51.07 c -1.32 0.43 -2.7 0.76 -4.14 0.98 l -12.01 1.85 l -17.68 2.72 c -2.43 0.37 -4.52 -1.72 -4.15 -4.15 l 2.72 -17.67 l 1.85 -12.01 c 0.22 -1.44 0.55 -2.82 0.98 -4.14 c 1.28 -3.96 3.42 -7.35 6.14 -10.07 c 0.12 -0.12 0.23 -0.23 0.36 -0.34 c 3.44 -3.31 7.76 -5.58 12.36 -6.61 c 8.03 -1.79 16.93 0.18 23.67 6.91 c 6.73 6.73 8.71 15.64 6.92 23.67 c -1.03 4.6 -3.3 8.92 -6.61 12.36 c -2.77 2.89 -6.28 5.16 -10.41 6.49 Z" stroke-linecap="round" />
</g>
<g transform="matrix(5.79 0 0 5.79 412.15 135.78)" id="Layer_1"  >
<path style="stroke: rgb(0,0,0); stroke-width: 2; stroke-dasharray: none; stroke-linecap: butt; stroke-dashoffset: 0; stroke-linejoin: miter; stroke-miterlimit: 10; fill: rgb(251,230,77); fill-rule: nonzero; opacity: 1;"  transform=" translate(-181.48, -23.1)" d="M 196.34 44.57 L 160 8.24 c 3.44 -3.31 7.76 -5.58 12.36 -6.61 l 30.59 30.59 c -1.03 4.6 -3.3 8.92 -6.61 12.36 Z" stroke-linecap="round" />
</g>
<g transform="matrix(5.79 0 0 5.79 335.88 212.04)" id="Layer_1"  >
<path style="stroke: rgb(0,0,0); stroke-width: 2; stroke-dasharray: none; stroke-linecap: butt; stroke-dashoffset: 0; stroke-linejoin: miter; stroke-miterlimit: 10; fill: rgb(251,230,77); fill-rule: nonzero; opacity: 1;"  transform=" translate(-168.31, -36.27)" d="M 185.93 51.07 c -1.32 0.43 -2.7 0.76 -4.14 0.98 l -12.01 1.85 l -19.1 -19.1 l 1.85 -12.01 c 0.22 -1.44 0.55 -2.82 0.98 -4.14 l 32.42 32.42 Z" stroke-linecap="round" />
</g>
<g transform="matrix(5.79 0 0 5.79 275.97 289.99)" id="Layer_1"  >
<path style="stroke: none; stroke-width: 1; stroke-dasharray: none; stroke-linecap: butt; stroke-dashoffset: 0; stroke-linejoin: miter; stroke-miterlimit: 4; fill: rgb(0,0,0); fill-rule: nonzero; opacity: 1;"  transform=" translate(-157.96, -49.74)" d="M 163.58 50.77 l -4.89 -4.89 c -0.39 -0.39 -1.02 -0.39 -1.41 0 s -0.39 1.02 0 1.41 l 3.51 3.51 h 0 c -0.88 0.15 -1.79 -0.14 -2.42 -0.78 l -3.04 -3.04 c -0.39 -0.39 -1.02 -0.39 -1.41 0 s -0.39 1.02 0 1.41 l 1.74 1.74 c 0.54 0.54 0.24 1.48 -0.51 1.6 h 0 c -0.3 0.05 -0.61 -0.05 -0.82 -0.26 l -0.61 -0.61 c -0.39 -0.39 -1.02 -0.39 -1.41 0 s -0.39 1.02 0 1.41 l 1.32 1.32 c 0.23 0.23 0.55 0.33 0.87 0.28 l 8.56 -1.41 c 0.37 -0.06 0.67 -0.32 0.79 -0.68 s 0.02 -0.75 -0.24 -1.01 Z" stroke-linecap="round" />
</g>
<g transform="matrix(5.79 0 0 5.79 359.99 259.34)" id="Layer_1"  >
<path style="stroke: none; stroke-width: 1; stroke-dasharray: none; stroke-linecap: butt; stroke-dashoffset: 0; stroke-linejoin: miter; stroke-miterlimit: 4; fill: rgb(0,0,0); fill-rule: nonzero; opacity: 1;"  transform=" translate(-172.47, -44.44)" d="M 179.7 47.92 l -9.73 -9.73 c -0.39 -0.39 -1.02 -0.39 -1.41 0 s -0.39 1.02 0 1.41 l 8.36 8.36 l -1.37 0.23 c -0.3 0.05 -0.61 -0.05 -0.82 -0.26 l -3.04 -3.04 c -0.39 -0.39 -1.02 -0.39 -1.41 0 s -0.39 1.02 0 1.41 l 2.37 2.37 l -1.37 0.23 c -0.3 0.05 -0.61 -0.05 -0.82 -0.26 l -3.85 -3.85 c -0.39 -0.39 -1.02 -0.39 -1.41 0 s -0.39 1.02 0 1.41 l 4.22 4.22 c 0.44 0.44 1.07 0.65 1.69 0.54 l 8.08 -1.33 c 0.37 -0.06 0.67 -0.32 0.79 -0.68 s 0.02 -0.75 -0.25 -1.01 Z" stroke-linecap="round" />
</g>
<g transform="matrix(5.79 0 0 5.79 471.85 179.82)" id="Layer_1"  >
<path style="stroke: none; stroke-width: 1; stroke-dasharray: none; stroke-linecap: butt; stroke-dashoffset: 0; stroke-linejoin: miter; stroke-miterlimit: 4; fill: rgb(0,0,0); fill-rule: nonzero; opacity: 1;"  transform=" translate(-191.78, -30.71)" d="M 187.89 23.07 l 8.7 8.7 c 0.44 0.44 0.6 1.09 0.43 1.69 c -0.07 0.23 -0.14 0.46 -0.21 0.69 l -5.79 -5.79 c -0.39 -0.39 -1.02 -0.39 -1.41 0 s -0.39 1.02 0 1.41 l 5.88 5.88 c 0.3 0.3 0.37 0.75 0.16 1.12 c -0.14 0.25 -0.3 0.5 -0.46 0.75 l -9.27 -9.27 c -0.39 -0.39 -1.02 -0.39 -1.41 0 s -0.39 1.02 0 1.41 l 10.1 10.1 c 0.2 0.2 0.49 0.31 0.78 0.29 c 0.29 -0.02 0.55 -0.16 0.73 -0.4 l 0.22 -0.29 c 1.56 -2.09 2.6 -4.55 3 -7.13 c 0.05 -0.31 -0.06 -0.62 -0.28 -0.84 l -9.73 -9.73 c -0.39 -0.39 -1.02 -0.39 -1.41 0 s -0.39 1.02 0 1.41 Z" stroke-linecap="round" />
</g>
<g transform="matrix(5.79 0 0 5.79 430.93 231.59)" id="Layer_1"  >
<path style="stroke: none; stroke-width: 1; stroke-dasharray: none; stroke-linecap: butt; stroke-dashoffset: 0; stroke-linejoin: miter; stroke-miterlimit: 4; fill: rgb(0,0,0); fill-rule: nonzero; opacity: 1;"  transform=" translate(-184.72, -39.65)" d="M 192 44.26 c 0.04 -0.31 -0.07 -0.61 -0.29 -0.83 l -11.8 -11.8 c -0.39 -0.39 -1.02 -0.39 -1.41 0 s -0.39 1.02 0 1.41 l 10.9 10.9 l -0.57 0.35 l -2.88 -2.88 c -0.39 -0.39 -1.02 -0.39 -1.41 0 s -0.39 1.02 0 1.41 l 2.53 2.53 l -0.57 0.35 l -7.39 -7.39 c -0.39 -0.39 -1.02 -0.39 -1.41 0 s -0.39 1.02 0 1.41 l 7.95 7.95 c 0.32 0.32 0.83 0.39 1.22 0.15 l 4.68 -2.82 c 0.26 -0.16 0.44 -0.43 0.48 -0.74 Z" stroke-linecap="round" />
</g>
<g transform="matrix(5.79 0 0 5.79 506.01 112.18)" id="Layer_1"  >
<path style="stroke: none; stroke-width: 1; stroke-dasharray: none; stroke-linecap: butt; stroke-dashoffset: 0; stroke-linejoin: miter; stroke-miterlimit: 4; fill: rgb(0,0,0); fill-rule: nonzero; opacity: 1;"  transform=" translate(-197.68, -19.03)" d="M 194.54 17.76 c -0.39 -0.39 -1.02 -0.39 -1.41 0 s -0.39 1.02 0 1.41 l 6.8 6.8 c 0.25 0.25 0.62 0.35 0.96 0.26 c 0.34 -0.09 0.61 -0.35 0.71 -0.7 c 0.04 -0.14 0.44 -1.61 0.66 -3.6 c 0.33 -0.34 0.35 -0.85 0.1 -1.23 c 0.16 -2.77 -0.15 -6.15 -2.09 -8.53 c -0.35 -0.44 -0.98 -0.49 -1.41 -0.15 c -0.43 0.35 -0.49 0.98 -0.15 1.41 c 0.53 0.65 0.9 1.41 1.16 2.22 c 0.3 0.93 -0.89 1.62 -1.58 0.93 l -0.95 -0.95 c -0.39 -0.39 -1.02 -0.39 -1.41 0 s -0.39 1.02 0 1.41 l 4.04 4.04 c 0.2 0.2 0.31 0.49 0.27 0.78 c -0.06 0.51 -0.13 0.98 -0.2 1.39 l -5.5 -5.5 Z" stroke-linecap="round" />
</g>
<g transform="matrix(4.09 4.09 -4.09 4.09 132.69 414.12)" id="Layer_1"  >
<path style="stroke: rgb(0,0,0); stroke-width: 2; stroke-dasharray: none; stroke-linecap: butt; stroke-dashoffset: 0; stroke-linejoin: miter; stroke-miterlimit: 10; fill: rgb(227,139,180); fill-rule: nonzero; opacity: 1;"  transform=" translate(-133.21, -71.18)" d="M 128.83 62.86 h 8.77 c 1.25 0 2.26 1.01 2.26 2.26 v 7.72 c 0 3.67 -2.98 6.65 -6.65 6.65 h 0 c -3.67 0 -6.65 -2.98 -6.65 -6.65 v -7.72 c 0 -1.25 1.01 -2.26 2.26 -2.26 Z" stroke-linecap="round" />
</g>
<g transform="matrix(5.79 0 0 5.79 194.15 352.67)" id="Layer_1"  >
<line style="stroke: rgb(0,0,0); stroke-width: 2; stroke-dasharray: none; stroke-linecap: butt; stroke-dashoffset: 0; stroke-linejoin: miter; stroke-miterlimit: 10; fill: rgb(227,139,180); fill-rule: nonzero; opacity: 1;"  x1="-4.739999999999995" y1="4.739999999999998" x2="4.739999999999995" y2="-4.739999999999998" />
</g>
<g transform="matrix(5.79 0 0 5.79 160.25 420.57)" id="Layer_1"  >
<line style="stroke: rgb(0,0,0); stroke-width: 2; stroke-dasharray: none; stroke-linecap: round; stroke-dashoffset: 0; stroke-linejoin: miter; stroke-miterlimit: 10; fill: none; fill-rule: nonzero; opacity: 1;"  x1="1.7650000000000006" y1="1.7650000000000006" x2="-1.7650000000000006" y2="-1.7650000000000006" />
</g>
<g transform="matrix(5.79 0 0 5.79 133 431.97)" id="Layer_1"  >
<line style="stroke: rgb(0,0,0); stroke-width: 2; stroke-dasharray: none; stroke-linecap: round; stroke-dashoffset: 0; stroke-linejoin: miter; stroke-miterlimit: 10; fill: none; fill-rule: nonzero; opacity: 1;"  x1="2.489999999999995" y1="2.4949999999999974" x2="-2.489999999999995" y2="-2.4949999999999974" />
</g>
</svg>