<svg id="Layer_1" xmlns="http://www.w3.org/2000/svg" viewBox="0 0 241.47 67.18"><g><path d="M48.63,15.97c-8.39,0-15.21,6.82-15.21,15.21s6.82,15.21,15.21,15.21,15.21-6.82,15.21-15.21-6.82-15.21-15.21-15.21Zm0,22.69c-4.12,0-7.48-3.36-7.48-7.48s3.36-7.48,7.48-7.48,7.48,3.36,7.48,7.48-3.36,7.48-7.48,7.48Z" style="fill:#fff;"/><path d="M28.76,15.74h-4.42c-.91,0-1.66,.74-1.66,1.66v.55c-2.21-1.25-4.76-1.97-7.48-1.97C6.82,15.97,0,22.8,0,31.18s6.82,15.21,15.21,15.21c2.72,0,5.27-.72,7.48-1.97v7.65c0,4.03-3.24,7.32-7.26,7.38-4.13,.07-7.51-3.4-7.51-7.53v-1.73c0-.91-.74-1.66-1.66-1.66H1.85c-.91,0-1.66,.74-1.66,1.66v1.65c0,8.29,6.59,15.22,14.88,15.34,8.44,.13,15.35-6.7,15.35-15.11V17.39c0-.91-.74-1.66-1.66-1.66Zm-13.55,22.92c-4.12,0-7.48-3.36-7.48-7.48s3.36-7.48,7.48-7.48,7.48,3.36,7.48,7.48-3.36,7.48-7.48,7.48Z" style="fill:#fff;"/><path d="M95.61,15.74h-4.42c-.91,0-1.66,.74-1.66,1.66v.55c-2.21-1.25-4.76-1.97-7.48-1.97-8.39,0-15.21,6.82-15.21,15.21s6.82,15.21,15.21,15.21c2.72,0,5.27-.72,7.48-1.97v7.65c0,4.13-3.41,7.48-7.56,7.38-3.97-.09-7.22-3.56-7.22-7.53v-1.73c0-.91-.74-1.66-1.66-1.66h-4.42c-.91,0-1.66,.74-1.66,1.66v1.65c0,8.11,6.3,14.95,14.39,15.33,8.66,.4,15.83-6.52,15.83-15.1V17.39c0-.91-.74-1.66-1.66-1.66Zm-13.55,22.92c-4.12,0-7.48-3.36-7.48-7.48s3.36-7.48,7.48-7.48,7.48,3.36,7.48,7.48-3.36,7.48-7.48,7.48Z" style="fill:#fff;"/><path d="M150.06,15.8c-2.71,0-5.26,.73-7.46,2-.02-.91-.76-1.65-1.68-1.65h-4.27c-.93,0-1.68,.75-1.68,1.68v46.89c0,.93,.75,1.68,1.68,1.68h4.27c.93,0,1.68-.75,1.68-1.68v-20.89c2.2,1.26,4.74,2,7.45,2,8.28,0,15.02-6.74,15.02-15.02s-6.74-15.02-15.02-15.02Zm0,22.4c-4.07,0-7.39-3.31-7.39-7.39s3.31-7.39,7.39-7.39,7.39,3.31,7.39,7.39-3.31,7.39-7.39,7.39Z" style="fill:#fff;"/><path d="M182.71,15.8c-8.28,0-15.02,6.74-15.02,15.02s6.74,15.02,15.02,15.02,15.02-6.74,15.02-15.02-6.74-15.02-15.02-15.02Zm0,22.4c-4.07,0-7.39-3.31-7.39-7.39s3.31-7.39,7.39-7.39,7.39,3.31,7.39,7.39-3.31,7.39-7.39,7.39Z" style="fill:#fff;"/><path d="M215.59,15.8c-8.28,0-15.02,6.74-15.02,15.02s6.74,15.02,15.02,15.02,15.02-6.74,15.02-15.02-6.74-15.02-15.02-15.02Zm0,22.4c-4.07,0-7.39-3.31-7.39-7.39s3.31-7.39,7.39-7.39,7.39,3.31,7.39,7.39-3.31,7.39-7.39,7.39Z" style="fill:#fff;"/><rect x="233.84" width="7.63" height="45.9" rx="1.68" ry="1.68" style="fill:#fff;"/></g><path d="M123.53,34.21c-.36,0-.67,.21-.83,.53-.38,.75-.88,1.43-1.5,2.04l-5.64,5.61-5.61-5.65c-.6-.6-1.08-1.28-1.45-2-.16-.32-.47-.53-.83-.53h-5.83c-.61,0-1.05,.59-.88,1.18,.68,2.38,1.96,4.62,3.82,6.49l8.17,8.23c.11,.11,.23,.22,.36,.31,1.25,.98,2.98,1.02,4.27,.15,.07-.05,.13-.09,.2-.15,.12-.08,.23-.18,.33-.29l8.23-8.18c1.86-1.86,3.19-4.1,3.9-6.56,.17-.59-.26-1.18-.88-1.18h-5.84Zm2.89-13.82c-3.73-3.75-9.05-5.33-14.47-4.08-1.38,.32-2.71,.85-3.92,1.57-4.46,2.64-6.98,6.88-7.54,11.33-.07,.53,.37,1,.91,1h5.54c.42,0,.8-.29,.89-.7,.31-1.48,1.04-2.88,2.18-4.02,.36-.35,.75-.67,1.16-.95,1.31-.89,2.85-1.36,4.47-1.36,2.12,.01,4.12,.84,5.62,2.35,1.09,1.11,1.83,2.49,2.14,3.98,.09,.41,.46,.7,.89,.7h5.54c.56,0,.98-.5,.91-1.05-.42-3.31-1.91-6.36-4.3-8.77Z" style="fill:#fff;"/><path d="M117.6,62.75h-4.21c-1.08-.02-1.95-.89-1.95-1.97l.02-4.89c0-.7,.57-1.27,1.28-1.27l5.57,.02c.7,0,1.27,.57,1.27,1.28l-.02,4.89c0,1.08-.88,1.95-1.96,1.95Z" style="fill:#fff;"/></svg>